<svg width="195" height="65" viewBox="0 0 195 65" fill="none" xmlns="http://www.w3.org/2000/svg">
<path d="M98.351 43.7408C99.5448 44.799 100.213 46.2317 100.359 48.0425H97.4742C97.266 47.0168 96.777 46.2049 96.0091 45.6032C95.2392 45.0015 94.223 44.7016 92.9565 44.7016C91.9479 44.7016 90.9986 44.9499 90.1084 45.4466C89.2183 45.9432 88.4656 46.6519 87.8486 47.5726C87.2316 48.4934 86.819 49.5707 86.6108 50.8047C86.5153 51.3014 86.4676 51.7904 86.4676 52.2698C86.4676 53.6968 86.8649 54.8219 87.6576 55.6471C88.4504 56.4723 89.5048 56.8849 90.8171 56.8849C92.1294 56.8849 93.1839 56.585 94.1695 55.9833C95.1552 55.3835 95.9365 54.5774 96.5133 53.5688H99.3978C98.5955 55.3796 97.4188 56.8085 95.8658 57.8591C94.3109 58.9097 92.4924 59.4331 90.4102 59.4331C89.0158 59.4331 87.8066 59.1523 86.7808 58.5926C85.7551 58.031 84.9738 57.2459 84.437 56.2373C83.9002 55.2287 83.6328 54.0501 83.6328 52.7054C83.6328 52.0482 83.6882 51.416 83.8009 50.8066C84.0894 49.1237 84.6853 47.6299 85.5908 46.3253C86.4962 45.0187 87.629 43.9986 88.991 43.2613C90.3529 42.524 91.8352 42.1553 93.4379 42.1553C95.52 42.1553 97.159 42.6844 98.3529 43.7408H98.351Z" fill="#004080"/>
<path d="M114.009 47.3345C115.05 48.3049 115.572 49.6383 115.572 51.3364C115.572 51.8178 115.524 52.3374 115.428 52.899C115.188 54.2285 114.691 55.3899 113.938 56.3832C113.186 57.3765 112.259 58.1368 111.163 58.6659C110.064 59.195 108.884 59.4586 107.618 59.4586C106.479 59.4586 105.474 59.2428 104.601 58.8092C103.728 58.3775 103.05 57.749 102.571 56.9219C102.089 56.0967 101.851 55.1148 101.851 53.9782C101.851 53.4969 101.898 52.9849 101.994 52.4405C102.235 51.111 102.731 49.9496 103.484 48.9563C104.236 47.963 105.171 47.2027 106.284 46.6736C107.398 46.1445 108.588 45.8809 109.852 45.8809C111.583 45.8809 112.968 46.3661 114.011 47.3345H114.009ZM106.511 49.3899C105.614 50.1425 105.037 51.2333 104.781 52.6583C104.716 53.027 104.685 53.3956 104.685 53.7643C104.685 54.855 104.989 55.6745 105.598 56.2285C106.208 56.7805 106.983 57.0575 107.929 57.0575C109.035 57.0575 110.032 56.685 110.92 55.94C111.809 55.195 112.382 54.1024 112.639 52.6602C112.702 52.324 112.735 51.963 112.735 51.579C112.735 50.4902 112.431 49.665 111.822 49.1034C111.213 48.5418 110.435 48.2629 109.491 48.2629C108.401 48.2629 107.409 48.6392 106.511 49.3918V49.3899Z" fill="#004080"/>
<path d="M139.004 46.938C139.774 47.6754 140.158 48.7317 140.158 50.1109C140.158 50.5598 140.11 51.0488 140.015 51.576L138.645 59.2914H135.906L137.203 51.8645C137.266 51.5607 137.298 51.2398 137.298 50.9036C137.298 50.0555 137.058 49.3984 136.578 48.9323C136.097 48.4681 135.432 48.2351 134.584 48.2351C133.526 48.2351 132.63 48.5675 131.893 49.2322C131.155 49.897 130.666 50.8712 130.427 52.1529L129.153 59.2914H126.414L127.736 51.8645C127.799 51.4156 127.831 51.1042 127.831 50.9266C127.831 50.0612 127.587 49.3965 127.098 48.9323C126.609 48.4681 125.94 48.2351 125.09 48.2351C124.032 48.2351 123.132 48.5751 122.387 49.257C121.642 49.939 121.15 50.9361 120.909 52.2484V52.1529L119.66 59.2914H116.896L119.226 46.0498H121.99L121.509 48.8368C122.005 47.876 122.695 47.1348 123.576 46.6133C124.456 46.0937 125.426 45.832 126.483 45.832C127.539 45.832 128.473 46.1052 129.186 46.6496C129.898 47.194 130.351 47.9791 130.544 49.0049C131.121 48.0116 131.881 47.2341 132.827 46.6744C133.772 46.1128 134.773 45.8339 135.831 45.8339C137.178 45.8339 138.234 46.2026 139.004 46.94V46.938Z" fill="#004080"/>
<path d="M146.911 46.0483L144.556 59.2899H141.816L144.147 46.0483H146.911ZM145.012 41.1448C145.413 40.7762 145.91 40.5928 146.502 40.5928C146.966 40.5928 147.331 40.7131 147.595 40.9538C147.858 41.1945 147.992 41.5059 147.992 41.8917C147.992 42.4361 147.795 42.885 147.404 43.2384C147.01 43.5918 146.517 43.7675 145.925 43.7675C145.444 43.7675 145.071 43.6472 144.808 43.4065C144.544 43.1658 144.41 42.8545 144.41 42.4686C144.41 41.9567 144.611 41.5154 145.012 41.1467V41.1448Z" fill="#004080"/>
<path d="M151.788 54.9182C151.741 55.1742 151.716 55.4149 151.716 55.6384C151.716 56.1026 151.844 56.4311 152.1 56.6241C152.356 56.817 152.772 56.9125 153.349 56.9125H154.696L154.239 59.2926H152.556C151.37 59.2926 150.468 59.0519 149.853 58.5725C149.236 58.0911 148.929 57.3079 148.929 56.2172C148.929 55.7358 148.969 55.2888 149.049 54.8724L150.203 48.3834H148.281L148.69 46.053H150.612L151.189 42.7598H153.953L153.376 46.053H156.572L156.163 48.3834H152.942L151.788 54.9201V54.9182Z" fill="#004080"/>
<path d="M161.017 54.9182C160.969 55.1742 160.944 55.4149 160.944 55.6384C160.944 56.1026 161.072 56.4311 161.328 56.6241C161.584 56.817 162.001 56.9125 162.578 56.9125H163.924L163.468 59.2926H161.785C160.599 59.2926 159.697 59.0519 159.082 58.5725C158.465 58.0911 158.157 57.3079 158.157 56.2172C158.157 55.7358 158.197 55.2888 158.278 54.8724L159.431 48.3834H157.51L157.919 46.053H159.84L160.417 42.7598H163.181L162.604 46.053H165.8L165.391 48.3834H162.171L161.017 54.9201V54.9182Z" fill="#004080"/>
<path d="M177.529 46.5055C178.347 46.9219 178.968 47.5026 179.392 48.2476C179.816 48.9926 180.028 49.8388 180.028 50.7825C180.028 51.1358 179.988 51.5523 179.908 52.0317C179.812 52.4959 179.707 52.8894 179.594 53.2103H169.405C169.373 53.4186 169.358 53.6993 169.358 54.0508C169.358 55.1244 169.642 55.9209 170.211 56.4424C170.781 56.9639 171.529 57.2237 172.458 57.2237C173.386 57.2237 174.185 56.9925 174.897 56.5265C175.61 56.0623 176.11 55.4453 176.399 54.6755H179.331C178.817 56.1024 177.929 57.2542 176.662 58.1368C175.396 59.0174 173.906 59.4586 172.192 59.4586C170.479 59.4586 169.195 58.9868 168.202 58.0413C167.209 57.0957 166.712 55.7987 166.712 54.1482C166.712 53.6191 166.76 53.0824 166.855 52.5379C167.096 51.176 167.585 49.9955 168.32 48.9926C169.058 47.9916 169.967 47.2218 171.048 46.6851C172.129 46.1483 173.312 45.8809 174.593 45.8809C175.73 45.8809 176.708 46.0891 177.526 46.5055H177.529ZM177.289 50.9028C177.289 49.9744 176.996 49.2696 176.412 48.7882C175.827 48.3068 175.094 48.0681 174.213 48.0681C173.14 48.0681 172.183 48.3966 171.342 49.0537C170.502 49.7108 169.944 50.6793 169.673 51.9611H177.17C177.251 51.6401 177.291 51.2887 177.291 50.9028H177.289Z" fill="#004080"/>
<path d="M192.501 46.5055C193.319 46.9219 193.94 47.5026 194.364 48.2476C194.788 48.9926 195 49.8388 195 50.7825C195 51.1358 194.96 51.5523 194.879 52.0317C194.784 52.4959 194.679 52.8894 194.568 53.2103H184.377C184.345 53.4186 184.329 53.6993 184.329 54.0508C184.329 55.1244 184.614 55.9209 185.183 56.4424C185.752 56.9639 186.501 57.2237 187.43 57.2237C188.358 57.2237 189.156 56.9925 189.869 56.5265C190.581 56.0623 191.082 55.4453 191.37 54.6755H194.302C193.791 56.1024 192.9 57.2542 191.636 58.1368C190.369 59.0174 188.879 59.4586 187.166 59.4586C185.452 59.4586 184.169 58.9868 183.176 58.0413C182.182 57.0957 181.686 55.7987 181.686 54.1482C181.686 53.6191 181.733 53.0824 181.829 52.5379C182.069 51.176 182.559 49.9955 183.294 48.9926C184.031 47.9916 184.941 47.2218 186.022 46.6851C187.103 46.1483 188.285 45.8809 189.567 45.8809C190.706 45.8809 191.682 46.0891 192.499 46.5055H192.501ZM192.26 50.9028C192.26 49.9744 191.968 49.2696 191.384 48.7882C190.799 48.3068 190.066 48.0681 189.185 48.0681C188.111 48.0681 187.154 48.3966 186.312 49.0537C185.472 49.7108 184.914 50.6793 184.643 51.9611H192.14C192.22 51.6401 192.26 51.2887 192.26 50.9028Z" fill="#004080"/>
<path d="M90.4055 16.1232L89.5154 21.2654H95.7407L95.3568 23.38H89.1314L88.2183 28.6427H95.1638L94.7799 30.8776H85.0703L88.0502 13.9111H97.7598L97.3759 16.1232H90.4055Z" fill="#3B82F6"/>
<path d="M108.42 28.9081C107.915 29.5499 107.243 30.0657 106.401 30.4573C105.56 30.8508 104.578 31.0456 103.457 31.0456C102.255 31.0456 101.222 30.8336 100.357 30.4095C99.4914 29.9854 98.8381 29.4047 98.3988 28.6674C97.9575 27.9301 97.7455 27.0972 97.7627 26.1688H100.67C100.638 26.9062 100.857 27.5385 101.331 28.0676C101.803 28.5967 102.529 28.8603 103.507 28.8603C104.42 28.8603 105.142 28.5891 105.669 28.0428C106.198 27.4983 106.462 26.826 106.462 26.0237C106.462 25.4793 106.319 25.0265 106.03 24.6655C105.742 24.3045 105.377 24.0084 104.937 23.7754C104.496 23.5442 103.9 23.2825 103.148 22.9941C102.25 22.6426 101.526 22.3179 100.972 22.0199C100.42 21.7238 99.9499 21.3035 99.5659 20.7572C99.182 20.2128 98.989 19.5156 98.989 18.6655C98.989 18.2969 99.0215 17.9282 99.0845 17.5595C99.2928 16.3905 99.9289 15.4526 100.995 14.7477C102.061 14.0428 103.362 13.6895 104.899 13.6895C106.71 13.6895 108.076 14.1097 108.997 14.9521C109.917 15.7926 110.403 16.8795 110.45 18.209H107.493C107.493 17.5691 107.277 17.0189 106.844 16.5624C106.41 16.1059 105.745 15.8766 104.85 15.8766C104.017 15.8766 103.335 16.0963 102.808 16.5376C102.278 16.9788 102.015 17.6073 102.015 18.4249C102.015 18.9215 102.154 19.3379 102.435 19.6741C102.716 20.0103 103.064 20.2835 103.48 20.4917C103.896 20.6999 104.473 20.9482 105.211 21.2367C106.108 21.5729 106.84 21.8976 107.409 22.2109C107.978 22.5242 108.462 22.9597 108.863 23.5213C109.264 24.0829 109.465 24.803 109.465 25.6836C109.465 26.0848 109.432 26.4687 109.369 26.8374C109.241 27.5748 108.924 28.2643 108.42 28.9043V28.9081Z" fill="#3B82F6"/>
<path d="M117.011 13.9111L114.031 30.8776H111.292L114.272 13.9111H117.011Z" fill="#3B82F6"/>
<path d="M128.883 21.0244L128.474 23.3319H118.573L118.982 21.0244H128.883Z" fill="#3B82F6"/>
<path d="M140.477 28.9081C139.973 29.5499 139.301 30.0657 138.458 30.4573C137.618 30.8508 136.636 31.0456 135.515 31.0456C134.313 31.0456 133.28 30.8336 132.414 30.4095C131.549 29.9854 130.896 29.4047 130.456 28.6674C130.015 27.9301 129.803 27.0972 129.82 26.1688H132.728C132.695 26.9062 132.915 27.5385 133.389 28.0676C133.86 28.5967 134.586 28.8603 135.564 28.8603C136.477 28.8603 137.199 28.5891 137.727 28.0428C138.256 27.4983 138.519 26.826 138.519 26.0237C138.519 25.4793 138.376 25.0265 138.088 24.6655C137.799 24.3045 137.434 24.0084 136.995 23.7754C136.554 23.5442 135.958 23.2825 135.205 22.9941C134.307 22.6426 133.583 22.3179 133.029 22.0199C132.477 21.7238 132.007 21.3035 131.624 20.7572C131.24 20.2128 131.047 19.5156 131.047 18.6655C131.047 18.2969 131.079 17.9282 131.142 17.5595C131.35 16.3905 131.986 15.4526 133.052 14.7477C134.118 14.0428 135.419 13.6895 136.957 13.6895C138.768 13.6895 140.134 14.1097 141.054 14.9521C141.975 15.7926 142.46 16.8795 142.508 18.209H139.551C139.551 17.5691 139.335 17.0189 138.901 16.5624C138.468 16.1059 137.803 15.8766 136.907 15.8766C136.074 15.8766 135.392 16.0963 134.865 16.5376C134.336 16.9788 134.072 17.6073 134.072 18.4249C134.072 18.9215 134.212 19.3379 134.493 19.6741C134.773 20.0103 135.121 20.2835 135.538 20.4917C135.954 20.6999 136.531 20.9482 137.268 21.2367C138.166 21.5729 138.898 21.8976 139.467 22.2109C140.036 22.5242 140.519 22.9597 140.921 23.5213C141.322 24.0829 141.522 24.803 141.522 25.6836C141.522 26.0848 141.49 26.4687 141.427 26.8374C141.299 27.5748 140.982 28.2643 140.477 28.9043V28.9081Z" fill="#3B82F6"/>
<path d="M156.183 20.7831C155.494 21.4555 154.678 21.9044 153.733 22.1298C154.598 22.3228 155.278 22.722 155.775 23.3313C156.271 23.9407 156.52 24.6685 156.52 25.5185C156.52 25.7592 156.495 26.0152 156.447 26.2883C156.206 27.6981 155.538 28.8156 154.439 29.6408C153.341 30.466 151.895 30.8786 150.101 30.8786H143.349L146.329 13.9121H152.961C154.466 13.9121 155.608 14.212 156.386 14.8137C157.163 15.4154 157.551 16.2521 157.551 17.3257C157.551 17.5816 157.526 17.8701 157.478 18.191C157.303 19.2492 156.869 20.1146 156.181 20.7869L156.183 20.7831ZM153.733 25.3734C153.733 24.701 153.488 24.1718 152.999 23.7879C152.51 23.4039 151.809 23.211 150.896 23.211H147.459L146.499 28.6188H149.96C151.001 28.6188 151.847 28.3819 152.495 27.9101C153.144 27.4383 153.54 26.7774 153.685 25.9273C153.717 25.6713 153.733 25.4861 153.733 25.3753V25.3734ZM154.646 18.1146C154.646 17.4899 154.43 17.0047 153.996 16.6609C153.564 16.3171 152.89 16.1432 151.977 16.1432H148.684L147.794 21.2148H151.158C152.136 21.2148 152.915 20.9913 153.501 20.5424C154.086 20.0935 154.451 19.4689 154.594 18.6685C154.627 18.4126 154.642 18.2273 154.642 18.1165L154.646 18.1146Z" fill="#3B82F6"/>
<path d="M168.993 27.2025H161.832L159.885 30.8796H156.953L166.134 14.1768H169.282L172.575 30.8796H169.643L168.993 27.2025ZM168.609 25.0879L167.192 17.1567L162.963 25.0879H168.611H168.609Z" fill="#3B82F6"/>
<path d="M57.2704 19.5733H65.874C66.9112 19.5733 67.8625 18.9983 68.3458 18.0795L75.3238 4.78827C76.2884 2.94874 74.9799 0.736724 72.9035 0.70043L49.0183 0.266809C44.7222 0.18849 40.6649 2.24387 38.1855 5.75293L0.617428 58.9369C-0.92029 61.1146 0.584954 64.1289 3.24969 64.2072L15.2038 64.5568C18.3231 64.6485 21.2782 63.1604 23.0643 60.6007L48.4662 24.1673C50.4739 21.2886 53.7594 19.5733 57.2685 19.5733H57.2704Z" fill="url(#paint0_linear_1276_8498)"/>
<path d="M52.6232 52.3865L47.5784 61.0283C46.3883 63.0665 44.3979 64.289 42.2661 64.289H23.5098L33.7294 49.9873H51.5153C52.5831 49.9873 53.2173 51.3627 52.6213 52.3865H52.6232Z" fill="url(#paint1_linear_1276_8498)"/>
<path d="M65.7287 39.4946C66.4947 39.3533 67.1346 40.0639 66.8863 40.8012C66.6781 41.4106 66.1069 41.8212 65.4632 41.8212H49.7956C48.7049 41.8212 47.979 40.6923 48.4298 39.7009L51.4881 34.1842C51.7288 33.6456 52.2636 33.2998 52.8539 33.2998L61.4403 33.3934C62.2082 33.3934 62.6724 34.2091 62.3171 34.8891C62.0286 35.4411 61.8987 36.0887 61.9847 36.7726C62.1681 38.2243 63.3715 39.3915 64.829 39.5309C65.1403 39.5615 65.4422 39.5462 65.7306 39.4927L65.7287 39.4946Z" fill="url(#paint2_linear_1276_8498)"/>
<path d="M61.6006 41.8229C61.9387 40.5087 62.3952 39.2384 62.8881 37.9777C62.9912 37.7083 63.1116 37.4333 63.2606 37.183C64.1946 35.5708 66.3818 34.9003 68.0686 35.5823C69.1574 35.9815 70.0628 36.9462 70.271 38.077C69.9386 37.6377 69.5776 37.2575 69.1536 36.9844C67.7706 36.0445 65.7801 36.0999 64.548 37.2136C63.9807 37.7007 63.6827 38.4113 63.314 39.0608C62.7849 40.0063 62.2329 40.9347 61.6044 41.821L61.6006 41.8229Z" fill="#3B82F6"/>
<path d="M73.9099 37.9754C73.333 36.9324 71.8087 36.6249 70.9395 37.4424C70.5002 37.8379 70.3569 38.4491 70.08 38.9649C69.7934 39.5475 69.4458 40.111 68.9759 40.5733C68.0322 41.5169 66.6148 41.6525 65.3598 41.7729C64.1048 41.8741 62.8498 41.876 61.5986 41.8245C62.8479 41.7691 64.0972 41.685 65.3312 41.5207C66.2252 41.3717 67.1822 41.2762 67.9634 40.8101C68.9835 40.1263 69.4458 38.9401 69.9558 37.8703C70.6931 36.0996 73.3693 36.111 73.9099 37.9773V37.9754Z" fill="#3B82F6"/>
<path d="M66.6795 35.737C68.3158 35.737 69.6423 34.4105 69.6423 32.7743C69.6423 31.138 68.3158 29.8115 66.6795 29.8115C65.0433 29.8115 63.7168 31.138 63.7168 32.7743C63.7168 34.4105 65.0433 35.737 66.6795 35.737Z" fill="url(#paint3_linear_1276_8498)"/>
<path d="M71.8757 36.6645C72.9149 36.6645 73.7573 35.8221 73.7573 34.7829C73.7573 33.7438 72.9149 32.9014 71.8757 32.9014C70.8365 32.9014 69.9941 33.7438 69.9941 34.7829C69.9941 35.8221 70.8365 36.6645 71.8757 36.6645Z" fill="url(#paint4_linear_1276_8498)"/>
<defs>
<linearGradient id="paint0_linear_1276_8498" x1="51.3774" y1="78.1918" x2="24.2696" y2="-13.756" gradientUnits="userSpaceOnUse">
<stop stop-color="#333333"/>
<stop offset="0.06" stop-color="#343D4C"/>
<stop offset="0.2" stop-color="#36527F"/>
<stop offset="0.33" stop-color="#3763AA"/>
<stop offset="0.46" stop-color="#3970CB"/>
<stop offset="0.59" stop-color="#3A7AE2"/>
<stop offset="0.7" stop-color="#3A80F1"/>
<stop offset="0.8" stop-color="#3B82F6"/>
</linearGradient>
<linearGradient id="paint1_linear_1276_8498" x1="15.9033" y1="57.1391" x2="56.3692" y2="57.1391" gradientUnits="userSpaceOnUse">
<stop stop-color="#333333"/>
<stop offset="0.05" stop-color="#333A46"/>
<stop offset="0.17" stop-color="#354D74"/>
<stop offset="0.29" stop-color="#375D9C"/>
<stop offset="0.42" stop-color="#386ABC"/>
<stop offset="0.55" stop-color="#3975D6"/>
<stop offset="0.69" stop-color="#3A7CE7"/>
<stop offset="0.83" stop-color="#3A80F2"/>
<stop offset="1" stop-color="#3B82F6"/>
</linearGradient>
<linearGradient id="paint2_linear_1276_8498" x1="39.9046" y1="37.5634" x2="72.3724" y2="37.5634" gradientUnits="userSpaceOnUse">
<stop stop-color="#3A80F4"/>
<stop offset="0.23" stop-color="#2569CA"/>
<stop offset="0.44" stop-color="#1557AA"/>
<stop offset="0.64" stop-color="#094A92"/>
<stop offset="0.84" stop-color="#024284"/>
<stop offset="1" stop-color="#004080"/>
</linearGradient>
<linearGradient id="paint3_linear_1276_8498" x1="63.7168" y1="32.7743" x2="69.6442" y2="32.7743" gradientUnits="userSpaceOnUse">
<stop stop-color="#3B82F6"/>
<stop offset="0.06" stop-color="#2E74DC"/>
<stop offset="0.14" stop-color="#2063C0"/>
<stop offset="0.24" stop-color="#1456A8"/>
<stop offset="0.34" stop-color="#0B4C96"/>
<stop offset="0.47" stop-color="#044589"/>
<stop offset="0.64" stop-color="#014182"/>
<stop offset="1" stop-color="#004080"/>
</linearGradient>
<linearGradient id="paint4_linear_1276_8498" x1="69.9941" y1="34.7829" x2="73.7592" y2="34.7829" gradientUnits="userSpaceOnUse">
<stop stop-color="#3B82F6"/>
<stop offset="0.04" stop-color="#347AE8"/>
<stop offset="0.15" stop-color="#2468C8"/>
<stop offset="0.27" stop-color="#1659AD"/>
<stop offset="0.39" stop-color="#0C4E99"/>
<stop offset="0.54" stop-color="#05468B"/>
<stop offset="0.71" stop-color="#014182"/>
<stop offset="1" stop-color="#004080"/>
</linearGradient>
</defs>
</svg>
